<svg width="69" height="63" viewBox="0 0 69 63" fill="none" xmlns="http://www.w3.org/2000/svg">
<path d="M16.5971 41.58L2.04838 55.0038H0V63H8.69249V61.0858L23.2412 47.6619H16.5971V41.58ZM60.9262 0L21.7706 36.7823L17.0698 32.4692L14.6013 34.7469L19.5121 39.2781V44.9965H25.7098L30.6207 49.5277L33.0892 47.25L28.4147 42.9369L68.2794 6.78462V0H60.9262ZM51.6822 41.58V47.6862H45.0644L59.6131 61.11V63H68.2794V54.9796H66.231L51.6822 41.58ZM33.0892 24.1823L7.35316 0H0V6.78462L26.2088 30.5308L33.0892 24.1823ZM48.7672 39.2781L53.6781 34.7469L51.2095 32.4692L46.535 36.7823L42.1494 32.6388L35.4265 38.8419L39.8909 42.8885L35.1901 47.25L37.6587 49.5277L42.5695 44.9965H48.7672V39.2781Z" fill="white"/>
</svg>
